<svg width="1002" height="86" viewBox="0 0 1002 86" fill="none" xmlns="http://www.w3.org/2000/svg">
<g clip-path="url(#clip0_7_2)">
<path d="M9.9375 29.625H3.3125V60.375H9.9375V29.625Z" fill="#393939"/>
<path d="M84.4688 29.625H77.8438V60.375H84.4688V29.625Z" fill="#393939"/>
<path d="M28.1562 18.0938H21.5312V70.625H28.1562V18.0938Z" fill="#393939"/>
<path d="M66.25 19.375H59.625V70.625H66.25V19.375Z" fill="#393939"/>
<path d="M102.688 19.375H96.0625V70.625H102.688V19.375Z" fill="#393939"/>
<path d="M46.375 6.5625H39.75V83.4375H46.375V6.5625Z" fill="#393939"/>
<path d="M121.938 28.625H115.312V59.375H121.938V28.625Z" fill="#393939"/>
<path d="M196.469 28.625H189.844V59.375H196.469V28.625Z" fill="#393939"/>
<path d="M140.156 17.0938H133.531V69.625H140.156V17.0938Z" fill="#393939"/>
<path d="M178.25 18.375H171.625V69.625H178.25V18.375Z" fill="#393939"/>
<path d="M214.688 18.375H208.062V69.625H214.688V18.375Z" fill="#393939"/>
<path d="M158.375 5.5625H151.75V82.4375H158.375V5.5625Z" fill="#393939"/>
<path d="M233.938 27.625H227.312V58.375H233.938V27.625Z" fill="#393939"/>
<path d="M308.469 27.625H301.844V58.375H308.469V27.625Z" fill="#393939"/>
<path d="M252.156 16.0938H245.531V68.625H252.156V16.0938Z" fill="#393939"/>
<path d="M290.25 17.375H283.625V68.625H290.25V17.375Z" fill="#393939"/>
<path d="M326.688 17.375H320.062V68.625H326.688V17.375Z" fill="#393939"/>
<path d="M270.375 4.5625H263.75V81.4375H270.375V4.5625Z" fill="#393939"/>
<path d="M345.938 26.625H339.312V57.375H345.938V26.625Z" fill="#393939"/>
<path d="M420.469 26.625H413.844V57.375H420.469V26.625Z" fill="#393939"/>
<path d="M364.156 15.0938H357.531V67.625H364.156V15.0938Z" fill="#393939"/>
<path d="M402.25 16.375H395.625V67.625H402.25V16.375Z" fill="#393939"/>
<path d="M438.688 16.375H432.062V67.625H438.688V16.375Z" fill="#393939"/>
<path d="M382.375 3.5625H375.75V80.4375H382.375V3.5625Z" fill="#393939"/>
<path d="M457.938 25.625H451.312V56.375H457.938V25.625Z" fill="#393939"/>
<path d="M532.469 25.625H525.844V56.375H532.469V25.625Z" fill="#393939"/>
<path d="M476.156 14.0938H469.531V66.625H476.156V14.0938Z" fill="#393939"/>
<path d="M514.25 15.375H507.625V66.625H514.25V15.375Z" fill="#393939"/>
<path d="M550.688 15.375H544.062V66.625H550.688V15.375Z" fill="#393939"/>
<path d="M494.375 2.5625H487.75V79.4375H494.375V2.5625Z" fill="#393939"/>
<path d="M569.938 26.625H563.312V57.375H569.938V26.625Z" fill="#393939"/>
<path d="M644.469 26.625H637.844V57.375H644.469V26.625Z" fill="#393939"/>
<path d="M588.156 15.0938H581.531V67.625H588.156V15.0938Z" fill="#393939"/>
<path d="M626.25 16.375H619.625V67.625H626.25V16.375Z" fill="#393939"/>
<path d="M662.688 16.375H656.062V67.625H662.688V16.375Z" fill="#393939"/>
<path d="M606.375 3.5625H599.75V80.4375H606.375V3.5625Z" fill="#393939"/>
<path d="M681.938 28.625H675.312V59.375H681.938V28.625Z" fill="#393939"/>
<path d="M756.469 28.625H749.844V59.375H756.469V28.625Z" fill="#393939"/>
<path d="M700.156 17.0938H693.531V69.625H700.156V17.0938Z" fill="#393939"/>
<path d="M738.25 18.375H731.625V69.625H738.25V18.375Z" fill="#393939"/>
<path d="M774.688 18.375H768.062V69.625H774.688V18.375Z" fill="#393939"/>
<path d="M718.375 5.5625H711.75V82.4375H718.375V5.5625Z" fill="#393939"/>
<path d="M793.938 28.625H787.312V59.375H793.938V28.625Z" fill="#393939"/>
<path d="M868.469 28.625H861.844V59.375H868.469V28.625Z" fill="#393939"/>
<path d="M812.156 17.0938H805.531V69.625H812.156V17.0938Z" fill="#393939"/>
<path d="M850.25 18.375H843.625V69.625H850.25V18.375Z" fill="#393939"/>
<path d="M886.688 18.375H880.062V69.625H886.688V18.375Z" fill="#393939"/>
<path d="M830.375 5.5625H823.75V82.4375H830.375V5.5625Z" fill="#393939"/>
<path d="M905.938 28.625H899.312V59.375H905.938V28.625Z" fill="#393939"/>
<path d="M980.469 28.625H973.844V59.375H980.469V28.625Z" fill="#393939"/>
<path d="M924.156 17.0938H917.531V69.625H924.156V17.0938Z" fill="#393939"/>
<path d="M962.25 18.375H955.625V69.625H962.25V18.375Z" fill="#393939"/>
<path d="M998.688 18.375H992.062V69.625H998.688V18.375Z" fill="#393939"/>
<path d="M942.375 5.5625H935.75V82.4375H942.375V5.5625Z" fill="#393939"/>
</g>
<defs>
<clipPath id="clip0_7_2">
<rect width="1002" height="86" fill="white"/>
</clipPath>
</defs>
</svg>
